<svg xmlns="http://www.w3.org/2000/svg" viewBox="0 0 288.01 288.43"><title>Logo_HCMUTE_2014_ORIGINAL</title><path d="M144.19,2.7A141.61,141.61,0,1,1,2.59,144.31,141.61,141.61,0,0,1,144.19,2.7Zm0,2A139.62,139.62,0,1,0,283.81,144.31,139.62,139.62,0,0,0,144.19,4.69Z" style="fill:#fff;fill-rule:evenodd"/><path d="M38.48,126.22,66.6,115.34c2.1-.81,4.36,0,5,1.8h0c.67,1.8-.5,3.94-2.6,4.75L40.91,132.77c-2.1.82-4.37,0-5-1.8h0c-.68-1.8.49-3.93,2.6-4.75ZM39,136.93c-2.41.91-3.73,3.32-3,5.35h0c.78,2,3.37,3,5.77,2l32.13-12.2c2.39-.91,3.72-3.31,2.95-5.35h0c-.77-2-3.36-3-5.76-2L39,136.93Zm.71,11.46,34.5-13.09c2.58-1,5.36,0,6.19,2.19h0c.83,2.19-.6,4.77-3.18,5.75l-34.5,13.09c-2.58,1-5.36,0-6.19-2.19h0c-.83-2.18.6-4.76,3.18-5.75Zm2.11,11.37L78.07,146c2.71-1,5.64,0,6.51,2.3h0c.87,2.3-.63,5-3.34,6L45,168.1c-2.71,1-5.64,0-6.51-2.3h0c-.87-2.29.63-5,3.34-6ZM44,171.32c-2.94,1.12-4.56,4.06-3.62,6.54h0a5.08,5.08,0,0,0,5.78,2.83c20.94,8.44,34.57,10.65,56,19.49-11.59-2.63-15.77-5.27-20.7-2.07s-4,4.35-7.45,34.57c13.66,9.49,27.32,16.87,41.42,20.83,7.18-38.5,9.84-61.57,6.6-68.24s-13.63-12.85-35.18-17.8c-9.15,3-17.42,5.31-25.08,7.44l24.92-9.46c2.94-1.11,4.56-4,3.62-6.53h0c-.94-2.49-4.11-3.61-7.05-2.5Z" style="fill:#fff;fill-rule:evenodd"/><path d="M250.4,126.22l-28.12-10.88c-2.1-.81-4.36,0-5,1.8h0c-.67,1.8.5,3.94,2.6,4.75L248,132.77c2.1.82,4.37,0,5-1.8h0c.68-1.8-.49-3.93-2.6-4.75Zm-.49,10.71c2.41.91,3.74,3.32,3,5.35h0c-.78,2-3.37,3-5.77,2L215,132.12c-2.4-.91-3.73-3.31-3-5.35h0c.77-2,3.36-3,5.76-2l32.12,12.2Zm-.71,11.46L214.7,135.3c-2.58-1-5.36,0-6.19,2.19h0c-.84,2.19.59,4.77,3.17,5.75l34.5,13.09c2.58,1,5.36,0,6.19-2.19h0c.83-2.18-.6-4.76-3.18-5.75Zm-2.11,11.37L210.81,146c-2.71-1-5.64,0-6.51,2.3h0c-.87,2.3.63,5,3.34,6l36.28,13.77c2.71,1,5.64,0,6.52-2.3h0c.87-2.29-.63-5-3.34-6Zm-2.18,11.56c2.94,1.12,4.57,4.06,3.62,6.54h0a5.09,5.09,0,0,1-5.78,2.83c-20.95,8.44-34.58,10.65-56,19.49,11.59-2.63,15.77-5.27,20.7-2.07s3.56,4.78,7,35c-13.66,9.2-26,15.57-41,20.4-7.18-38.5-9.84-61.57-6.6-68.24s13.63-12.85,35.18-17.8c9.15,3,17.42,5.31,25.08,7.44l-24.92-9.46c-2.94-1.11-4.56-4-3.61-6.53h0c.94-2.49,4.11-3.61,7-2.5Z" style="fill:#fff;fill-rule:evenodd"/><path d="M69.07,100.55l35,68.11c32-14.66,52.36-10.49,80.88,1.92l34.19-68.31q-1.92-1.29-3.85-2.55l-.69,1.53,2.41,1.58L184.2,168.44l-.15-.07-.36.78c-25.47-11-47.81-14.77-78.33-1.91l-.38-.79-.13.06L71.27,101.2l2.3-1.28-.71-1.49c-1.26.69-2.52,1.39-3.79,2.12Z" style="fill:#fff;fill-rule:evenodd"/><path d="M185,170.6h0c-28.95-12.59-49.4-16.34-80.87-1.91h0l-35-68.13h0c1.35-.77,2.59-1.46,3.78-2.12h0v0l.71,1.51h0l-2.28,1.27,33.56,65.27.13-.06.38.8a106.21,106.21,0,0,1,21.52-6.67,79.23,79.23,0,0,1,19.53-1.32A87.7,87.7,0,0,1,165,162.38a142.54,142.54,0,0,1,18.68,6.75l.36-.78.16.06L217,102.84c-.85-.57-1.63-1.08-2.4-1.58h0l.7-1.54h0c1.24.8,2.5,1.63,3.85,2.55h0Zm-43.36-11.28c1.4,0,2.8.05,4.21.13a84.06,84.06,0,0,1,19,3.51A179.22,179.22,0,0,1,185,170.55l34.17-68.27c-1.34-.91-2.59-1.74-3.82-2.53l-.68,1.49c.77.5,1.55,1,2.4,1.58h0l-32.85,65.62-.15-.07-.36.78h0c-24.55-10.61-47.26-15-78.32-1.91h0l-.38-.8-.13.06v0L71.25,101.2h0c.78-.44,1.55-.87,2.29-1.27l-.7-1.47c-1.18.65-2.41,1.34-3.75,2.11l35,68.08a106.82,106.82,0,0,1,22.1-7.63A72.73,72.73,0,0,1,141.63,159.32Z" style="fill:#fff"/><path d="M71.53,95.6l33.83,71.64c11.3-4.76,21.47-7.24,31.1-7.92a81.62,81.62,0,0,0-29.35,7l-.55-1.33-.38.15L73.66,96.24c1.25-.74,2.53-1.45,3.82-2.12l-.63-1.53q-2.7,1.38-5.32,3Zm102.74,69.78q4.65,1.69,9.42,3.77l32.82-72q-2.47-1.81-5.08-3.4l-.63,1.55.31.2c1.13.7,2.24,1.44,3.33,2.2L182.86,167l-1.16-.48-.58,1.41Q177.7,166.57,174.27,165.38Z" style="fill:#fff;fill-rule:evenodd"/><path d="M183.7,169.17h0c-3.35-1.45-6.43-2.68-9.42-3.77h0v0c2.23.77,4.54,1.62,6.84,2.54l.58-1.41h0l1.14.48,31.57-69.3c-1.1-.77-2.21-1.51-3.31-2.2l-.32-.19h0l.64-1.57h0c1.71,1,3.42,2.18,5.08,3.4h0Zm-7.57-3.12c2.41.92,4.9,1.93,7.55,3.08l32.81-72c-1.65-1.21-3.35-2.35-5.05-3.38l-.62,1.52.3.18c1.11.69,2.23,1.43,3.33,2.21h0L182.86,167h0l-1.14-.48-.58,1.42h0C179.44,167.27,177.77,166.64,176.13,166.05Zm-70.78,1.22v0L71.51,95.59h0c1.76-1.08,3.55-2.1,5.32-3h0v0l.63,1.55h0c-1.27.65-2.55,1.36-3.8,2.11l32.5,68.84.36-.15h0l.55,1.33a83.68,83.68,0,0,1,14.74-4.93,80.33,80.33,0,0,1,14.6-2h0v0c-10,.7-20.12,3.29-31.11,7.92ZM71.55,95.61l33.82,71.61a98.66,98.66,0,0,1,29.6-7.8,82.62,82.62,0,0,0-27.86,6.88h0v0l-.54-1.31-.36.15h0L73.64,96.23h0c1.26-.75,2.54-1.46,3.81-2.11l-.62-1.51C75.08,93.52,73.3,94.53,71.55,95.61Z" style="fill:#fff"/><path d="M200.09,81.4l.37.18Z" style="fill:none"/><path d="M98.46,80l-.71.15.5-.1Z" style="fill:none"/><path d="M173.43,76.06h0Z" style="fill:none"/><path d="M102.36,79.33l-.8.12.62-.09Z" style="fill:none"/><path d="M194.79,79.33l.88.3Z" style="fill:none"/><path d="M174.51,165.47l-.67-.23Z" style="fill:none"/><path d="M202.36,82.5l.31.16Z" style="fill:none"/><path d="M179.16,167.16l-.73-.28Z" style="fill:none"/><path d="M192.41,78.59l1,.3Z" style="fill:none"/><path d="M179.24,76.27l.17,0Z" style="fill:none"/><path d="M176.25,76.11h0Z" style="fill:none"/><path d="M181.79,76.51l.87.11Z" style="fill:none"/><path d="M190.05,78l.93.24Z" style="fill:none"/><path d="M184.31,76.84l1,.16Z" style="fill:none"/><path d="M197.54,80.33l.32.12Z" style="fill:none"/><path d="M122,77.23l.72.06Z" style="fill:none"/><path d="M113.38,78.53h0Z" style="fill:none"/><path d="M110.22,78.61l-1.07,0h.35Z" style="fill:none"/><path d="M117.29,78.6l.53,0Z" style="fill:none"/><path d="M121.36,78.83l.41,0Z" style="fill:none"/><path d="M211,90.29c-7.45-6.39-16.76-10.39-27.67-11.9a86.46,86.46,0,0,0-30.64,1.74c-.07.33-.14.61-.19.8a17.07,17.07,0,0,1-2,4.8,15.82,15.82,0,0,1-3,3.54,10.77,10.77,0,0,1-1.81,1.31,10.49,10.49,0,0,1-1.77.83c-1.21-.31-6.2-1.73-8.84-6.44a12.91,12.91,0,0,1-1.48-4.53,123.76,123.76,0,0,0-13.2-1.67l-.32,0c-1.18-.08-2.35-.13-3.51-.17l-.86,0c-1,0-1.93,0-2.88,0-.5,0-1,0-1.51,0l-1.87.08c-.2,0-.4,0-.6,0-.64,0-1.29.08-1.92.13l-1,.09-1.25.13-1.36.16-1.2.17-1.32.21-.9.16c-.58.1-1.14.22-1.71.34-.37.07-.73.15-1.1.24l-.68.15c-.83.21-1.66.41-2.47.65-.24.06-.47.14-.7.21-.92.27-1.82.56-2.71.88l-.16,0a54.71,54.71,0,0,0-9.16,4.28c-1.37.81-2.73,1.7-4,2.63L108,164.08a84.46,84.46,0,0,1,18.08-5.3c.77-.13,1.55-.24,2.32-.35h0c.77-.11,1.55-.21,2.33-.3h0c1.46-.17,2.92-.3,4.4-.39l.42,0c1.61-.1,3.23-.16,4.85-.16s3,0,4.55.12c.59,0,1.18.09,1.76.13l.87.07c1.29.1,2.59.24,3.89.4l.37,0a118,118,0,0,1,26,6.6l.32.11,2,.73Z" style="fill:none"/><path d="M169.86,164l-.45-.13Z" style="fill:none"/><path d="M125.54,79.23h0Z" style="fill:none"/><path d="M87.62,81.55l1.24-.49Z" style="fill:none"/><path d="M165.24,162.64l-.25-.07Z" style="fill:none"/><path d="M106.28,78.87l-.9.09.61-.06Z" style="fill:none"/><path d="M160.67,161.53l-.28-.06Z" style="fill:none"/><path d="M86.34,82.09l.59-.26Z" style="fill:none"/><path d="M156.17,160.65l-.58-.1Z" style="fill:none"/><path d="M186.87,77.28l.93.17Z" style="fill:none"/><path d="M118.25,77l-.81,0h-.55C117.34,77,117.79,77,118.25,77Z" style="fill:none"/><path d="M119.87,77.08l-.28,0-.93,0Z" style="fill:none"/><path d="M150.8,159.86l.27,0c.16,0,.33,0,.5.06l.16,0Z" style="fill:none"/><path d="M110.45,77l-.78,0-.75,0-1,.08C108.74,77,109.59,77,110.45,77Z" style="fill:none"/><path d="M115,76.89H113.3c-.31,0-.61,0-.91,0C113.25,76.88,114.13,76.88,115,76.89Z" style="fill:none"/><path d="M106.17,77.22l-.89.07-.79.08-.5.06-1.57.2-.7.11-1.34.21-.8.15-1.24.23-.72.16-1.33.29-.43.11A60.12,60.12,0,0,0,89,81,65.42,65.42,0,0,1,106.17,77.22Z" style="fill:none"/><path d="M123.73,160.93c1.49-.31,3-.57,4.46-.8l-1.71.27C125.56,160.56,124.64,160.74,123.73,160.93Z" style="fill:#fff"/><path d="M123.28,161c-.56.12-1.11.24-1.66.38C122.17,161.27,122.72,161.15,123.28,161Z" style="fill:#fff"/><path d="M100.86,79.57l-.64.1-.26.06Z" style="fill:#fff"/><path d="M120.61,161.65l-1,.27Z" style="fill:#fff"/><path d="M108.9,78.68c-.33,0-.67,0-1,0l-.92.08C107.61,78.76,108.26,78.71,108.9,78.68Z" style="fill:#fff"/><path d="M112.88,78.54c-.23,0-.48,0-.71,0h-.11c-.24,0-.46,0-.69,0C111.87,78.55,112.38,78.55,112.88,78.54Z" style="fill:#fff"/><path d="M143.51,159.29l-.67,0c1.11,0,2.22.09,3.34.16l-.43,0Z" style="fill:#fff"/><path d="M147.33,159.52c.6,0,1.2.09,1.8.16-.55-.06-1.1-.11-1.66-.15Z" style="fill:#fff"/><path d="M129,160l-.66.1,2.27-.3-.39,0Z" style="fill:#fff"/><path d="M118.06,162.34l-.49.14Z" style="fill:#fff"/><path d="M140,159.22c-.94,0-1.88,0-2.81.06l-1,.05-.7,0c2.11-.13,4.22-.17,6.31-.13l-.59,0Z" style="fill:#fff"/><path d="M104.74,79l-.8.08-.56.08Z" style="fill:#fff"/><path d="M178.21,165l-.32-.11Z" style="fill:#fff"/><path d="M132.62,159.58c-.63.06-1.25.14-1.88.21,1.38-.16,2.75-.28,4.12-.37-.48,0-1,.05-1.43.09Z" style="fill:#fff"/><path d="M151.85,158.32l-.37,0Z" style="fill:#fff"/><path d="M125.24,77.54l1,.11-1.37-.15.18,0Z" style="fill:#fff"/><path d="M129.7,78.12l1.54.23Z" style="fill:#fff"/><path d="M152.72,80.09c11-2.44,21.25-3,30.63-1.74a59,59,0,0,1,14.74,4,48.83,48.83,0,0,1,13,8h0l-30.84,75.52h0c-12.6-4.86-24.12-7.5-35.24-8.08a83.71,83.71,0,0,0-36.95,6.4h0v0l-30.77-75h0c1.29-.94,2.65-1.82,4-2.64a55,55,0,0,1,14.67-5.92c.26-.07.54-.12.8-.18l1-.23.71-.15,1.76-.35,1.34-.22.8-.12,1.58-.22c.48-.06,1-.1,1.44-.15l.9-.09,1.62-.14,1.25-.07,1.07,0c.46,0,.92-.06,1.39-.07h2.2c1.14,0,2.3,0,3.48.07l.53,0q1.75.07,3.54.21l.41,0c1.24.1,2.5.23,3.77.37h.11l1.94.22c2,.26,4,.59,6.06,1a14.73,14.73,0,0,1-.15-1.68q-4.25-.75-8.26-1.2l-.23,0c-.77-.09-1.53-.16-2.28-.23l-.72-.06-.76-.06-1.38-.09L118.66,77l-.41,0c-.46,0-.91,0-1.36,0l-1.88,0c-.88,0-1.76,0-2.62,0-.65,0-1.3,0-1.94,0-.86,0-1.71.08-2.56.13l-1.72.14A65.42,65.42,0,0,0,89,81l-.14,0-1.24.49-.69.28-.59.26A53.92,53.92,0,0,0,75.23,88.6l31.89,77.66a83.76,83.76,0,0,1,18.81-5.78l.55-.08c.82-.14,1.65-.27,2.48-.39l1.22-.16,2.44-.27.81-.07c.91-.08,1.82-.13,2.74-.18l1-.05c.93,0,1.87-.05,2.81-.06h.4l.8,0,2.32.06,1,0,1.23.09,1.72.13q1.67.14,3.33.33l.93.11c1.28.17,2.56.36,3.86.58l.58.1c1.4.24,2.8.52,4.22.82l.28.06c1.43.32,2.87.67,4.32,1l.25.07c1.38.36,2.77.76,4.17,1.18l.45.13c1.32.41,2.64.84,4,1.29l.67.23c1.3.44,2.6.92,3.92,1.41l.73.28c.65.25,1.3.48,2,.74L213,89.82a50.53,50.53,0,0,0-10.33-7.16l-.31-.16c-.63-.32-1.26-.63-1.9-.92l-.37-.18c-.73-.33-1.48-.65-2.23-1l-.32-.12c-.62-.24-1.24-.48-1.87-.7l-.88-.3-1.39-.44-1-.3c-.47-.14-.95-.26-1.43-.39l-.93-.24q-1.11-.27-2.25-.51l-.93-.17L185.31,77l-1-.16-1.65-.22-.87-.11c-.79-.08-1.58-.16-2.38-.22l-.17,0c-.93-.07-1.87-.12-2.82-.16h-.17c-.89,0-1.79,0-2.69,0h-.25a96.77,96.77,0,0,0-20.26,2.32C152.94,79.05,152.82,79.64,152.72,80.09Z" style="fill:#fff"/><path d="M130.74,158.13Z" style="fill:#fff"/><path d="M115.76,78.55l.86,0Z" style="fill:#fff"/><path d="M121.44,77.19l-1-.08.77.06Z" style="fill:#fff"/><path d="M97.15,80.31l-.43.09-.25.06Z" style="fill:#fff"/><path d="M135.56,157.72l-.42,0Z" style="fill:#fff"/><path d="M93.3,81.32c.23-.07.46-.15.7-.21C93.76,81.17,93.53,81.25,93.3,81.32Z" style="fill:#fff"/><path d="M120.13,78.75l.32,0Z" style="fill:#fff"/><path d="M90.43,82.25l.16,0Z" style="fill:#fff"/><path d="M147.59,157.88l-.87-.07Z" style="fill:#fff"/><path d="M128.41,158.43Z" style="fill:#fff"/><path d="M147.33,159.52l-1.15-.09Z" style="fill:#fff"/><path d="M151.48,158.28c-1.3-.16-2.6-.3-3.89-.4C148.89,158,150.19,158.12,151.48,158.28Z" style="fill:#fff"/><path d="M99.58,78.1l.8-.15Z" style="fill:#fff"/><path d="M130.74,158.13c-.78.09-1.56.19-2.33.3C129.18,158.32,130,158.22,130.74,158.13Z" style="fill:#fff"/><path d="M151.57,160c-.17,0-.34,0-.5-.06Z" style="fill:#fff"/><path d="M135.14,157.74c-1.48.09-2.94.22-4.4.39C132.2,158,133.67,157.83,135.14,157.74Z" style="fill:#fff"/><path d="M177.89,164.92a118,118,0,0,0-26-6.6A119.16,119.16,0,0,1,177.89,164.92Z" style="fill:#fff"/><path d="M108.92,77l.75,0Z" style="fill:#fff"/><path d="M104.85,77.32l-.36.05.79-.08C105.14,77.31,105,77.31,104.85,77.32Z" style="fill:#fff"/><path d="M113.3,76.87h0Z" style="fill:#fff"/><path d="M142.84,159.27l-1.06,0Z" style="fill:#fff"/><path d="M126.2,77.65c1.16.14,2.32.29,3.5.47C128.52,77.94,127.35,77.79,126.2,77.65Z" style="fill:#fff"/><path d="M100.38,78l1.34-.21C101.27,77.81,100.82,77.87,100.38,78Z" style="fill:#fff"/><path d="M101.72,77.74l.7-.11Z" style="fill:#fff"/><path d="M104,77.43l.5-.06Z" style="fill:#fff"/><path d="M102.42,77.63l1.57-.2Z" style="fill:#fff"/><path d="M98.34,78.33l1.24-.23Z" style="fill:#fff"/><path d="M97.62,78.49l.72-.16Z" style="fill:#fff"/><path d="M130.74,159.79l-.17,0Z" style="fill:#fff"/><path d="M135.47,159.38l-.61,0Z" style="fill:#fff"/><path d="M123.73,160.93l-.45.1Z" style="fill:#fff"/><path d="M128.3,160.11l-.11,0Z" style="fill:#fff"/><path d="M121.62,161.41c-.34.07-.68.16-1,.24Z" style="fill:#fff"/><path d="M95.86,78.89l.43-.11Z" style="fill:#fff"/><path d="M119.56,161.92l-1.5.42Z" style="fill:#fff"/><path d="M96.29,78.78l1.33-.29Z" style="fill:#fff"/><path d="M98.25,80.07l-.5.1-.6.14C97.52,80.22,97.88,80.14,98.25,80.07Z" style="fill:#fff"/><path d="M109.5,78.65h-.35l-.25,0C109.1,78.66,109.3,78.66,109.5,78.65Z" style="fill:#fff"/><path d="M118.66,77l.93,0L117.44,77l.81,0Z" style="fill:#fff"/><path d="M122.73,77.29q1,.09,2.1.21c-.58-.07-1.18-.15-1.76-.2s-1.08-.07-1.63-.11l.57,0Z" style="fill:#fff"/><path d="M120.48,77.11l-.89,0,.28,0Z" style="fill:#fff"/><path d="M112.39,76.9c.3,0,.6,0,.91,0-1.23,0-2.44,0-3.63.1l.78,0C111.09,76.92,111.74,76.91,112.39,76.9Z" style="fill:#fff"/><path d="M75.21,88.59a53.65,53.65,0,0,1,11.13-6.5l.59-.26.69-.28,1.24-.49L89,81a60.12,60.12,0,0,1,6.86-2.12,60.33,60.33,0,0,0-7,2.14A54.24,54.24,0,0,0,75.2,88.58h0l31.9,77.71v0h0a86.66,86.66,0,0,1,10.46-3.82,84.77,84.77,0,0,0-10.46,3.81Z" style="fill:#fff"/><path d="M107.89,77.08l1-.08c-1.24.07-2.45.17-3.64.29l.89-.07Z" style="fill:#fff"/><path d="M90.59,82.2c.89-.32,1.79-.61,2.71-.88C92.39,81.59,91.48,81.88,90.59,82.2Z" style="fill:#fff"/><path d="M111.37,78.57l-1.15,0-.72,0Z" style="fill:#fff"/><path d="M102.18,79.36l-.62.09-.7.12Z" style="fill:#fff"/><path d="M100,79.73l-1.5.29-.21,0C98.82,80,99.38,79.83,100,79.73Z" style="fill:#fff"/><path d="M133.5,78.71l-2.26-.36,2.26.37Z" style="fill:#fff"/><path d="M107,78.81l-.7.06-.29,0Z" style="fill:#fff"/><path d="M103.38,79.19l-1,.14-.18,0Z" style="fill:#fff"/><path d="M106,78.9l-.61.06-.64.07Z" style="fill:#fff"/><path d="M116.89,76.94h.55c-1,0-2-.06-3-.07h.6Z" style="fill:#fff"/><path d="M133.65,80.44h0q-4-.72-8-1.19h-.11c-1.26-.14-2.51-.27-3.77-.37l-.41,0-.91-.06A123.76,123.76,0,0,1,133.65,80.44Z" style="fill:#fff"/><path d="M183.35,78.39c10.91,1.51,20.22,5.51,27.67,11.9L180.2,165.76l-2-.73,2,.76L211,90.28c-7.85-6.73-17.46-10.5-27.69-11.91a86.9,86.9,0,0,0-30.63,1.75h0A86.46,86.46,0,0,1,183.35,78.39Z" style="fill:#fff"/><path d="M108,164.08,77.25,89.16c1.29-.93,2.65-1.82,4-2.63a54.71,54.71,0,0,1,9.16-4.28,53.63,53.63,0,0,0-9.17,4.27c-1.38.81-2.73,1.69-4,2.63L108,164.1a84.42,84.42,0,0,1,20.41-5.67c-.77.11-1.55.22-2.32.35A84.46,84.46,0,0,0,108,164.08Z" style="fill:#fff"/><path d="M140.41,157.56c-1.62,0-3.24.06-4.85.16a84.19,84.19,0,0,1,9.4,0l1.76.11c-.58,0-1.17-.1-1.76-.13C143.44,157.6,141.93,157.56,140.41,157.56Z" style="fill:#fff"/><path d="M120.13,78.75c-.77,0-1.54-.1-2.31-.13l-.53,0-.67,0C117.78,78.62,119,78.67,120.13,78.75Z" style="fill:#fff"/><path d="M115.76,78.55l-2,0h-.93C113.83,78.53,114.79,78.53,115.76,78.55Z" style="fill:#fff"/><path d="M213,89.8a50.5,50.5,0,0,0-13.23-8.55,59.92,59.92,0,0,0-16.22-4.54,80.59,80.59,0,0,0-18.88-.24,106.74,106.74,0,0,0-11.64,1.86v0a96,96,0,0,1,20.25-2.29h.25c.9,0,1.8,0,2.69,0h.17c1,0,1.89.09,2.82.16l.17,0c.8.06,1.59.14,2.38.22l.87.11,1.65.22,1,.16,1.56.28.93.17q1.14.24,2.25.51l.93.24c.48.13,1,.25,1.43.39l1,.3,1.39.44.88.3c.63.22,1.25.46,1.87.7l.32.12c.75.3,1.5.62,2.23,1l.37.18c.64.29,1.27.6,1.9.92l.31.16A49.57,49.57,0,0,1,213,89.82l-31.9,78.1-2-.76-.73-.28c-1.31-.49-2.61-1-3.92-1.41l-.67-.23c-1.32-.45-2.65-.88-4-1.29l-.45-.13c-1.39-.42-2.78-.82-4.17-1.18l-.25-.07c-1.44-.37-2.88-.72-4.32-1l-.28-.06c-1.4-.3-2.81-.58-4.22-.82l-.58-.1c-1.29-.22-2.57-.41-3.86-.58l-.16,0a122.41,122.41,0,0,1,29.55,8h0L213,89.82h0Z" style="fill:#fff"/><path d="M94,81.11c.81-.24,1.64-.44,2.47-.65C95.64,80.66,94.82,80.87,94,81.11Z" style="fill:#fff"/><path d="M149.13,159.68c.65.06,1.29.14,1.94.21l-.27,0C150.25,159.8,149.69,159.73,149.13,159.68Z" style="fill:#fff"/><path d="M176.42,76.11c1,0,1.89.09,2.82.16C178.31,76.2,177.37,76.15,176.42,76.11Z" style="fill:#fff"/><path d="M179.41,76.29c.8.06,1.59.14,2.38.22C181,76.43,180.21,76.35,179.41,76.29Z" style="fill:#fff"/><path d="M140,159.22h1.2l-.8,0Z" style="fill:#fff"/><path d="M137.18,159.28c.93,0,1.87-.05,2.81-.06C139.05,159.23,138.11,159.25,137.18,159.28Z" style="fill:#fff"/><path d="M125.93,160.48a83.76,83.76,0,0,0-18.81,5.78L75.23,88.6a53.92,53.92,0,0,1,11.11-6.51,53.65,53.65,0,0,0-11.13,6.5l31.9,77.7a84.77,84.77,0,0,1,10.46-3.81l.49-.14,1.5-.42,1-.27c.33-.08.67-.17,1-.24.55-.14,1.1-.26,1.66-.38l.45-.1c.91-.19,1.83-.37,2.75-.53Z" style="fill:#fff"/><path d="M191,78.2c.48.13,1,.25,1.43.39C191.94,78.45,191.46,78.33,191,78.2Z" style="fill:#fff"/><path d="M97.75,80.17l-1,.23.43-.09Z" style="fill:#fff"/><path d="M182.66,76.62l1.65.22Z" style="fill:#fff"/><path d="M187.8,77.45q1.14.24,2.25.51Q188.94,77.69,187.8,77.45Z" style="fill:#fff"/><path d="M185.31,77l1.56.28Z" style="fill:#fff"/><path d="M183.35,78.37c10.23,1.41,19.84,5.18,27.69,11.91l-30.83,75.51-2-.76-.32-.11a119.16,119.16,0,0,0-26-6.6l-.37,0c-1.29-.16-2.59-.3-3.89-.4l-.87-.07L145,157.7a84.19,84.19,0,0,0-9.4,0l-.42,0c-1.47.09-2.94.22-4.4.39h0c-.78.09-1.56.19-2.33.3h0A84.42,84.42,0,0,0,108,164.1L77.23,89.15c1.3-.94,2.65-1.82,4-2.63a53.63,53.63,0,0,1,9.17-4.27l.16,0c.89-.32,1.8-.61,2.71-.88.23-.07.46-.15.7-.21.82-.24,1.64-.45,2.47-.65l.25-.06c-.26.06-.54.11-.8.18A55,55,0,0,0,81.25,86.5c-1.38.82-2.74,1.7-4,2.64h0l30.77,75v0h0a83.71,83.71,0,0,1,37-6.4c11.12.58,22.64,3.22,35.24,8.08h0l30.84-75.52h0a48.83,48.83,0,0,0-13-8,59,59,0,0,0-14.74-4c-9.38-1.3-19.65-.7-30.63,1.74v0A86.9,86.9,0,0,1,183.35,78.37Z" style="fill:#fff"/><path d="M143.51,159.29l2.24.11-1.23-.09Z" style="fill:#fff"/><path d="M141.19,159.23l.59,0,1.06,0,.67,0Z" style="fill:#fff"/><path d="M122,77.23l-.57,0-.19,0Z" style="fill:#fff"/><path d="M121.25,77.17l-.77-.06-.61,0Z" style="fill:#fff"/><path d="M126.48,160.4l1.71-.27.11,0,.66-.1C128.13,160.13,127.3,160.26,126.48,160.4Z" style="fill:#fff"/><path d="M133.43,159.51c.47,0,.95-.06,1.43-.09l.61,0,.7,0C135.25,159.38,134.34,159.43,133.43,159.51Z" style="fill:#fff"/><path d="M130.18,159.85l.39,0,.17,0c.63-.07,1.25-.15,1.88-.21Z" style="fill:#fff"/><path d="M145.75,159.4l.43,0,1.15.09h.14Z" style="fill:#fff"/><path d="M147.47,159.53c.56,0,1.11.09,1.66.15s1.12.12,1.67.18Q149.14,159.66,147.47,159.53Z" style="fill:#fff"/><path d="M181.11,167.9c-.65-.26-1.3-.49-2-.74l2,.76L213,89.82a49.57,49.57,0,0,0-10.35-7.16A50.53,50.53,0,0,1,213,89.82Z" style="fill:#fff"/><path d="M173.56,76.06c.9,0,1.8,0,2.69,0C175.36,76.07,174.46,76.06,173.56,76.06Z" style="fill:#fff"/><path d="M173.31,76.06a96,96,0,0,0-20.25,2.29v0A96.77,96.77,0,0,1,173.31,76.06Z" style="fill:#fff"/><path d="M133.5,78.74v0l-2.26-.37-1.54-.23c-1.18-.18-2.34-.33-3.5-.47l-1-.11Q129.26,78,133.5,78.74Z" style="fill:#fff"/><path d="M125,77.52l-.18,0q-1-.12-2.1-.21C123.48,77.36,124.24,77.43,125,77.52Z" style="fill:#fff"/><path d="M193.4,78.89l1.39.44Z" style="fill:#fff"/><path d="M86.93,81.83l.69-.28Z" style="fill:#fff"/><path d="M109.15,78.66l-1.25.07c.33,0,.67,0,1,0Z" style="fill:#fff"/><path d="M88.86,81.06,89,81Z" style="fill:#fff"/><path d="M106.17,77.22l1.72-.14Z" style="fill:#fff"/><path d="M130.18,159.85,129,160Z" style="fill:#fff"/><path d="M110.45,77c.64,0,1.29,0,1.94,0C111.74,76.91,111.09,76.92,110.45,77Z" style="fill:#fff"/><path d="M195.67,79.63c.63.22,1.25.46,1.87.7C196.92,80.09,196.3,79.85,195.67,79.63Z" style="fill:#fff"/><path d="M120.45,78.77l.91.06q-1.78-.14-3.54-.21c.77,0,1.54.08,2.31.13Z" style="fill:#fff"/><path d="M107.9,78.73l-1.62.14.7-.06Z" style="fill:#fff"/><path d="M113.38,78.53h-1.21c.23,0,.48,0,.71,0Z" style="fill:#fff"/><path d="M112.06,78.54h-.45c-.47,0-.93,0-1.39.07l1.15,0C111.6,78.56,111.82,78.54,112.06,78.54Z" style="fill:#fff"/><path d="M112.06,78.54h0Z" style="fill:#fff"/><path d="M121.77,78.86c1.26.1,2.51.23,3.77.37C124.27,79.09,123,79,121.77,78.86Z" style="fill:#fff"/><path d="M115,76.89l1.88,0Z" style="fill:#fff"/><path d="M118.25,77l.41,0Z" style="fill:#fff"/><path d="M125,77.52l.23,0Z" style="fill:#fff"/><path d="M116.62,78.58l.67,0c-1.18,0-2.34-.07-3.48-.07l2,0Z" style="fill:#fff"/><path d="M169.41,163.82c-1.4-.42-2.79-.82-4.17-1.18C166.63,163,168,163.4,169.41,163.82Z" style="fill:#fff"/><path d="M178.43,166.88c-1.32-.49-2.62-1-3.92-1.41C175.82,165.92,177.12,166.39,178.43,166.88Z" style="fill:#fff"/><path d="M173.84,165.24c-1.34-.45-2.66-.88-4-1.29C171.19,164.36,172.52,164.79,173.84,165.24Z" style="fill:#fff"/><path d="M101.56,79.45l-1.34.22.64-.1Z" style="fill:#fff"/><path d="M103.94,79.11l-1.58.22,1-.14Z" style="fill:#fff"/><path d="M200.46,81.58c.64.29,1.27.6,1.9.92C201.73,82.18,201.1,81.87,200.46,81.58Z" style="fill:#fff"/><path d="M133.65,80.42c-2.07-.37-4.09-.7-6.06-1l-1.94-.22q4,.47,8,1.19Z" style="fill:#fff"/><path d="M197.86,80.45c.75.3,1.5.62,2.23,1C199.36,81.07,198.61,80.75,197.86,80.45Z" style="fill:#fff"/><path d="M100.22,79.67,98.46,80l1.5-.29Z" style="fill:#fff"/><path d="M165,162.57c-1.45-.37-2.89-.72-4.32-1C162.11,161.85,163.55,162.2,165,162.57Z" style="fill:#fff"/><path d="M155.59,160.55c-1.3-.22-2.58-.41-3.86-.58C153,160.14,154.3,160.33,155.59,160.55Z" style="fill:#fff"/><path d="M160.39,161.47c-1.42-.3-2.82-.58-4.22-.82C157.58,160.89,159,161.17,160.39,161.47Z" style="fill:#fff"/><path d="M137.18,159.28l-1,.05Z" style="fill:#fff"/><path d="M105.38,79c-.48.05-1,.09-1.44.15l.8-.08Z" style="fill:#fff"/><path d="M133.43,159.51l-.81.07Z" style="fill:#fff"/><path d="M157.1,31.89c-3.52.61-1.15,7.27-4.67,7.88-.21-4.44-2.66-6.9-.59-13.59-4.78,3.68-4.37,4.37-6.18,9.28.05-5.65,3.07-9.65-1.57-13.72-6.68-5.85-8.24-5.82-3.58-11C125.9,17.29,143.45,24.25,137,28c-6.68,3.85-3.52,11.41-5,18.17-1.86-7.12-.22-10.36-5.73-12.39,3.51,12.46-5.39,18-2.79,26.93,1.6,5.48,5.91,9.39,10.75,11.67.14-.48.29-1,.48-1.52.58-1.61,1-2,3-5.61,1.27-2.26,2.13-3.77,2.8-5.13-.87-.82-1.64-2.2-2.18-4.73-1.29-5.8,5.27-11.23,4.34-20.11,2.17,3.57,6.67,8.92,4.88,12.68s-1,7.23-.42,10.82c2.66,4.18,3.26,4.69,4.1,6.22a18.47,18.47,0,0,1,2.13,7.59,19.16,19.16,0,0,0,9.68-11C166.07,52.87,154.29,41.69,157.1,31.89Zm-27.45,34Q129.26,58,126,58.81c-1.07-3.08-.22-8.39,2.2-14C125.94,56.93,132.4,53.91,129.65,65.87Z" style="fill:#ef3b39"/><path d="M146.16,94.47A26,26,0,0,1,159.51,100l4-4,4,4-4,4a25.87,25.87,0,0,1,5.54,13.35l5.71,0c0,1.91,0,3.82-.05,5.73l-5.66,0a25.73,25.73,0,0,1-5.55,13.34l4,4.1-4.1,4-3.94-4a25.9,25.9,0,0,1-13.34,5.55l-.12,5.74-5.72-.12.12-5.62a25.89,25.89,0,0,1-13.35-5.55l-4.18,4L119,140.34q2-1.92,4.07-3.85a25.9,25.9,0,0,1-5.55-13.34l-5.78-.22.21-5.72,5.57.21A25.87,25.87,0,0,1,123,104.07l-3.92-4.28,4.23-3.86,3.74,4.09a26,26,0,0,1,13.35-5.55v-.68h5.73v.68Zm-2.86,6.21a19.61,19.61,0,1,0,19.6,19.6A19.64,19.64,0,0,0,143.3,100.68Z" style="fill:#fff;fill-rule:evenodd"/><path d="M146.43,152.24l-6.53-.14.12-5.65a26.24,26.24,0,0,1-12.9-5.37l-4.23,4-4.49-4.74,4.1-3.88a26.13,26.13,0,0,1-5.37-12.91l-5.84-.22.24-6.53,5.6.21a26.32,26.32,0,0,1,5.37-12.91l-4-4.32,4.82-4.41,3.77,4.11A26.23,26.23,0,0,1,140,94.11V91.39h6.54v2.72a26.32,26.32,0,0,1,12.91,5.37l4-4,4.63,4.62-4.05,4A26.21,26.21,0,0,1,169.46,117l5.76,0-.06,6.53-5.7,0a26.22,26.22,0,0,1-5.37,12.91l4,4.12-4.68,4.56-4-4.07a26.2,26.2,0,0,1-12.92,5.37Zm-5.7-.93,4.91.11.12-5.7.35,0a25.42,25.42,0,0,0,13.14-5.47l.29-.23,3.91,4,3.52-3.43-4-4.06.23-.28a25.42,25.42,0,0,0,5.46-13.14l0-.36,5.62.05,0-4.92-5.66-.05,0-.35a25.42,25.42,0,0,0-5.46-13.14L163,104l4-4-3.48-3.48-4,4-.28-.22a25.55,25.55,0,0,0-13.15-5.47l-.36,0V93.2h-4.91v1.63l-.36,0a25.52,25.52,0,0,0-13.14,5.47l-.3.24-3.73-4.08-3.62,3.32,3.88,4.24-.22.27a25.42,25.42,0,0,0-5.46,13.14l0,.37-5.54-.21-.18,4.91,5.72.21,0,.35a25.42,25.42,0,0,0,5.47,13.14l.23.29-4,3.83,3.37,3.57,4.15-3.93.28.23a25.47,25.47,0,0,0,13.13,5.46l.37,0Zm2.57-11a20,20,0,1,1,20-20A20,20,0,0,1,143.3,140.29Zm0-39.21a19.2,19.2,0,1,0,19.2,19.2A19.23,19.23,0,0,0,143.3,101.08Z" style="fill:#fff"/><path d="M136.14,90c2.49,1.14,5,.28,7.46,1.42,2.5-1.14,5-.28,7.51-1.42l-3.21,66.11h-9.26Z" style="fill:#fff;fill-rule:evenodd"/><path d="M148.28,156.52h-10l-2.53-66.91L144,91l7.49-1.37,0,.42Zm-9.25-.81h8.48l3.17-61.29H136.56Z" style="fill:#fff"/><path d="M143.86,92.33a.73.73,0,0,1-.27,0c-7.52-3.89-10.78-7.68-10.71-15.86s7.43-12.75,9.89-24.31c.08-.35.15-.73.2-1.06,2.3,13.3,3.5,26.85.89,41.27Zm-.66-1.75c1.85-11.43,1.34-22.8-.29-34.11a34.68,34.68,0,0,1-2.78,6.63c-1.36,2.52-3.21,5.25-4.3,7.89a13.52,13.52,0,0,0-1.3,5.71C134.43,83.7,137.25,87.14,143.2,90.58Z" style="fill:#fff;fill-rule:evenodd"/><path d="M142.92,51.06c0,.06,0,.13.06.2a11.53,11.53,0,0,0,.5,1.1c5.17,8,10.06,12.55,10.26,21.22.18,8.1-2.13,14.38-9.68,18.66a.52.52,0,0,1-.25.09c2.6-14.42,1.41-28-.89-41.27Zm1.64,5.1a102.59,102.59,0,0,1,.37,34c5.37-4,7.31-9.52,7.15-16.56a19.72,19.72,0,0,0-1.73-7.78A53.28,53.28,0,0,0,144.56,56.16Z" style="fill:#fff;fill-rule:evenodd"/><path d="M244,53.63A134.49,134.49,0,0,1,278.87,144c0,74.31-60.5,134.92-134.68,134.92S9.52,218.34,9.52,144a134.49,134.49,0,0,1,34.85-90.4H72.85A115.29,115.29,0,0,0,29.06,144c0,63.53,51.72,115.34,115.13,115.34S259.33,207.56,259.33,144a115.29,115.29,0,0,0-43.79-90.4Z" style="fill:#fff;fill-rule:evenodd"/></svg>